<?xml version="1.0" standalone="no"?>
<!DOCTYPE svg PUBLIC "-//W3C//DTD SVG 20010904//EN"
 "http://www.w3.org/TR/2001/REC-SVG-20010904/DTD/svg10.dtd">
<svg version="1.0" xmlns="http://www.w3.org/2000/svg"
 width="480.000000pt" height="239.000000pt" viewBox="0 0 480.000000 239.000000"
 preserveAspectRatio="xMidYMid meet">

<g transform="translate(0.000000,239.000000) scale(0.100000,-0.100000)"
fill="#000000" stroke="none">
<path d="M2230 1956 c-138 -43 -156 -51 -200 -86 -21 -17 -45 -30 -54 -30 -9
0 -16 -4 -16 -10 0 -5 -21 -25 -46 -45 -43 -32 -45 -35 -22 -35 14 0 46 -9 72
-21 25 -11 51 -17 57 -14 6 4 18 0 27 -7 35 -30 45 -28 12 2 -32 29 -33 31
-10 25 14 -4 39 -20 55 -36 39 -37 56 -38 24 -2 -17 20 -18 23 -3 10 25 -21
41 -22 24 -2 -7 9 -11 17 -9 20 3 2 13 -9 24 -26 22 -32 37 -39 29 -11 -5 14
-3 14 10 -2 9 -11 16 -14 16 -8 0 7 6 12 13 12 8 0 19 11 25 25 6 14 18 25 26
25 9 0 25 13 37 30 12 16 37 36 55 45 35 16 79 20 70 6 -3 -5 -17 -8 -30 -8
-35 0 -78 -38 -136 -118 -54 -75 -59 -87 -34 -83 10 2 19 -3 21 -9 4 -11 -15
-18 -39 -14 -15 2 -8 -12 31 -58 60 -72 78 -119 29 -74 -13 12 -18 13 -18 3 0
-8 -13 -2 -32 16 -23 21 -18 12 18 -35 27 -35 53 -71 59 -80 5 -9 17 -28 27
-43 28 -42 8 -34 -35 14 -21 24 -34 34 -29 23 6 -11 22 -31 36 -44 14 -14 26
-29 26 -35 1 -6 19 -24 40 -41 21 -16 39 -34 40 -39 0 -6 -5 -5 -12 2 -7 7
-19 12 -28 12 -12 -1 -12 -2 2 -11 10 -5 15 -16 11 -24 -7 -20 15 -45 39 -45
15 0 18 -4 13 -17 -4 -10 -10 -29 -13 -43 -3 -14 -12 -36 -21 -50 -10 -15 -11
-21 -3 -16 7 4 22 27 33 50 12 26 32 49 52 59 18 9 42 24 55 33 33 24 27 0 -8
-29 -16 -14 -32 -38 -36 -53 -6 -28 -5 -27 25 11 70 88 128 111 149 58 19 -47
26 -87 15 -80 -13 8 -24 -18 -17 -37 3 -8 1 -23 -6 -33 -9 -15 -10 -13 -5 12
4 16 5 28 2 25 -3 -3 -32 -39 -65 -81 -65 -82 -119 -118 -154 -102 -17 7 -28
1 -60 -32 -63 -66 -68 -71 -68 -80 0 -5 21 12 48 38 35 34 52 45 68 41 12 -3
37 1 57 10 37 15 37 15 37 -10 0 -15 6 -24 15 -24 11 0 15 11 15 38 0 20 6 44
13 54 12 15 15 13 34 -15 18 -28 22 -52 27 -174 3 -82 14 -180 25 -232 17 -78
18 -94 6 -118 -24 -51 -29 -77 -13 -70 11 4 14 -1 10 -19 -4 -24 11 -33 23
-14 9 15 25 12 25 -5 0 -19 25 -10 69 26 19 16 36 27 38 25 2 -1 -4 -19 -12
-39 -9 -23 -11 -38 -5 -42 6 -4 19 13 29 37 10 24 30 69 45 100 28 61 43 118
32 118 -4 0 -22 -34 -41 -74 -25 -54 -42 -79 -63 -90 -28 -15 -30 -14 -35 6
-3 11 2 37 12 57 27 52 34 81 22 81 -6 0 -11 -7 -11 -15 0 -18 -46 -111 -59
-119 -4 -3 -11 11 -14 32 -3 20 -15 80 -27 132 -23 107 -40 367 -23 357 14 -9
37 19 28 33 -3 5 -1 10 4 10 6 0 10 3 9 8 -4 13 80 176 106 207 32 38 34 23 2
-19 -23 -31 -66 -109 -66 -122 0 -3 15 16 33 42 97 141 185 262 210 286 15 15
30 41 33 58 7 32 21 39 30 15 5 -12 10 -13 20 -4 11 9 14 9 14 -1 0 -6 -8 -14
-17 -17 -20 -6 -91 -83 -77 -83 11 0 114 94 114 104 0 4 14 24 30 45 l30 37
-19 94 c-21 98 -21 134 -1 58 7 -23 16 -52 20 -63 7 -16 9 -14 9 13 1 18 5 31
10 28 5 -3 7 -15 4 -26 -7 -28 5 -72 18 -64 29 18 -24 204 -58 204 -7 0 -35
34 -63 75 -28 41 -57 75 -66 75 -21 0 -77 30 -87 46 -4 8 -14 14 -22 14 -12 0
-11 -7 5 -32 11 -18 20 -40 20 -48 -1 -8 -12 4 -26 28 -14 23 -31 42 -37 42
-6 0 -20 9 -32 20 -23 22 -112 53 -200 70 -258 50 -275 50 -415 6z m35 -196
c3 -6 -1 -7 -9 -4 -18 7 -21 14 -7 14 6 0 13 -4 16 -10z m21 -212 l29 -33 -30
25 c-16 14 -34 28 -39 32 -6 5 -6 8 0 8 6 0 23 -15 40 -32z m180 -386 c-9 -8
-13 0 -20 38 l-6 35 16 -34 c8 -18 13 -36 10 -39z m164 -297 c0 -5 -5 -3 -10
5 -5 8 -10 20 -10 25 0 6 5 3 10 -5 5 -8 10 -19 10 -25z"/>
<path d="M1742 1563 c-22 -52 -21 -199 3 -222 15 -15 15 -14 6 12 -16 41 -13
158 4 206 18 51 10 54 -13 4z"/>
<path d="M3181 1444 c0 -11 3 -14 6 -6 3 7 2 16 -1 19 -3 4 -6 -2 -5 -13z"/>
<path d="M1700 1415 c0 -14 4 -25 9 -25 4 0 6 11 3 25 -2 14 -6 25 -8 25 -2 0
-4 -11 -4 -25z"/>
<path d="M1880 1350 c0 -5 7 -10 16 -10 8 0 12 5 9 10 -3 6 -10 10 -16 10 -5
0 -9 -4 -9 -10z"/>
<path d="M1690 1321 c0 -5 7 -11 15 -15 8 -3 15 -13 15 -21 0 -9 4 -14 8 -11
10 6 0 -72 -12 -94 -4 -8 2 -4 13 10 21 25 36 79 29 100 -4 14 -68 43 -68 31z"/>
<path d="M1850 1320 c0 -6 10 -8 24 -4 15 4 27 1 33 -9 4 -7 17 -19 28 -25 19
-11 19 -11 -3 -12 -15 0 -26 -7 -29 -21 -3 -11 -20 -26 -37 -34 l-31 -14 44 6
c30 4 45 2 51 -7 7 -11 11 -11 25 0 20 17 60 0 68 -29 7 -26 -7 -35 -33 -21
-16 9 -20 8 -20 -5 0 -21 -10 -19 -37 7 -29 27 -37 20 -13 -12 18 -24 23 -25
125 -23 58 1 111 5 116 9 6 3 -5 20 -25 39 -48 44 -47 63 2 35 36 -21 35 -21
-12 23 -27 25 -60 51 -75 57 -14 7 -38 19 -54 27 -34 18 -147 28 -147 13z
m111 -28 c-7 -2 -18 1 -23 6 -8 8 -4 9 13 5 13 -4 18 -8 10 -11z m-21 -56 c0
-3 -4 -8 -10 -11 -5 -3 -10 -1 -10 4 0 6 5 11 10 11 6 0 10 -2 10 -4z m70 -16
c18 -12 2 -12 -25 0 -13 6 -15 9 -5 9 8 0 22 -4 30 -9z"/>
<path d="M2950 1185 c-8 -9 -8 -15 -2 -15 12 0 26 19 19 26 -2 2 -10 -2 -17
-11z"/>
<path d="M2576 1078 c-7 -18 -25 -44 -40 -57 -29 -27 -33 -49 -11 -57 19 -8
19 -38 0 -54 -9 -7 -13 -15 -10 -18 9 -9 45 30 45 48 0 10 -7 23 -15 30 -12
10 -9 19 21 63 45 65 41 62 59 47 10 -8 15 -9 15 -2 0 10 -30 32 -44 32 -3 0
-12 -15 -20 -32z"/>
<path d="M2472 1054 c-12 -25 -17 -42 -11 -39 12 8 42 75 36 81 -2 2 -13 -17
-25 -42z"/>
<path d="M1620 1058 c0 -15 58 -53 67 -45 2 3 -4 10 -15 16 -11 6 -28 18 -36
27 -12 12 -16 12 -16 2z"/>
<path d="M1718 935 c-3 -25 1 -40 14 -52 10 -9 18 -12 18 -7 0 5 5 2 10 -6 8
-13 10 -12 10 3 0 9 -7 17 -15 17 -16 0 -31 42 -21 59 4 5 2 12 -3 15 -5 3
-11 -10 -13 -29z"/>
<path d="M2476 881 c-4 -7 -5 -15 -2 -18 9 -9 19 4 14 18 -4 11 -6 11 -12 0z"/>
<path d="M1781 856 c2 -2 21 -11 42 -19 41 -18 52 -7 12 11 -24 11 -63 17 -54
8z"/>
<path d="M1760 811 c0 -5 5 -13 10 -16 6 -3 10 -2 10 4 0 5 -4 13 -10 16 -5 3
-10 2 -10 -4z"/>
<path d="M2715 767 c-4 -10 -5 -21 -1 -24 10 -10 18 4 13 24 -4 17 -4 17 -12
0z"/>
<path d="M1798 748 c-9 -61 52 -160 106 -170 13 -3 56 -1 96 4 l73 9 39 -38
c21 -20 38 -45 38 -54 0 -10 4 -20 8 -23 5 -3 14 -31 21 -63 7 -32 15 -66 17
-75 3 -10 1 -18 -4 -18 -6 0 -13 11 -16 25 -9 37 -30 32 -22 -5 3 -19 2 -29
-4 -25 -6 3 -11 21 -11 38 -2 32 -2 32 -6 3 -5 -30 14 -86 28 -86 5 0 9 8 9
18 1 15 2 15 18 -3 9 -11 28 -22 42 -24 24 -3 24 -2 8 16 -10 11 -18 33 -18
50 0 81 -99 300 -130 287 -8 -3 -42 -10 -75 -14 -50 -6 -69 -4 -110 13 -63 25
-71 36 -79 97 -7 53 -22 74 -28 38z"/>
<path d="M2523 690 c0 -36 2 -50 4 -32 2 17 2 47 0 65 -2 17 -4 3 -4 -33z"/>
<path d="M2583 665 c0 -38 2 -53 4 -32 2 20 2 52 0 70 -2 17 -4 1 -4 -38z"/>
<path d="M2467 623 c-10 -141 -8 -231 3 -238 7 -4 10 53 10 164 0 94 -2 171
-3 171 -2 0 -7 -44 -10 -97z"/>
<path d="M2542 640 c0 -19 2 -27 5 -17 2 9 2 25 0 35 -3 9 -5 1 -5 -18z"/>
<path d="M2580 575 c0 -9 6 -12 15 -9 8 4 15 10 15 15 0 5 -7 9 -15 9 -8 0
-15 -7 -15 -15z"/>
<path d="M2303 540 c4 -14 7 -37 7 -51 0 -14 6 -34 14 -45 13 -16 13 -11 1 44
-7 35 -16 66 -20 70 -5 4 -5 -4 -2 -18z"/>
<path d="M2535 457 c-4 -45 -5 -143 -3 -217 1 -74 -1 -143 -6 -152 -6 -13 -4
-18 8 -18 14 0 16 26 16 235 0 129 -2 235 -4 235 -2 0 -7 -37 -11 -83z"/>
<path d="M2580 515 c0 -9 5 -15 11 -13 6 2 11 8 11 13 0 5 -5 11 -11 13 -6 2
-11 -4 -11 -13z"/>
<path d="M2286 453 c-13 -89 -18 -208 -8 -198 10 10 28 235 19 235 -3 0 -8
-17 -11 -37z"/>
<path d="M2351 413 c0 -45 3 -85 9 -88 12 -7 12 94 0 140 -6 22 -8 7 -9 -52z"/>
<path d="M1958 475 c-10 -10 12 -58 59 -133 33 -51 42 -60 47 -45 5 12 1 23
-13 34 -12 10 -19 26 -17 43 3 19 0 24 -9 16 -12 -10 -25 -4 -25 12 0 5 5 6
10 3 19 -12 10 11 -18 44 -15 18 -30 29 -34 26z"/>
<path d="M1791 449 c-2 -47 71 -222 102 -248 9 -7 -3 23 -25 66 -22 43 -48
108 -58 143 -11 40 -19 55 -19 39z"/>
<path d="M1932 400 c7 -11 17 -20 22 -20 5 0 1 9 -9 20 -10 11 -20 20 -22 20
-2 0 2 -9 9 -20z"/>
<path d="M2388 378 c-2 -7 -4 -31 -3 -53 1 -33 5 -41 23 -43 18 -3 22 2 22 22
0 14 -4 26 -10 26 -5 0 -10 8 -10 18 0 9 -4 23 -9 30 -7 11 -9 11 -13 0z"/>
<path d="M2065 356 c10 -14 19 -26 22 -26 7 0 -17 39 -28 46 -6 3 -3 -5 6 -20z"/>
<path d="M2576 364 c-10 -25 -7 -84 4 -84 6 0 10 23 10 50 0 52 -4 61 -14 34z"/>
<path d="M1810 295 c11 -25 17 -45 14 -45 -2 0 3 -14 12 -31 l16 -31 -23 16
c-13 9 -27 16 -31 16 -13 0 -9 -45 7 -81 16 -39 20 -20 5 29 -7 26 -6 33 3 29
45 -19 47 -19 47 -3 0 22 -53 146 -62 146 -4 0 1 -20 12 -45z"/>
<path d="M2460 288 c0 -50 12 -78 32 -78 4 0 8 5 8 10 0 6 -7 10 -15 10 -9 0
-12 6 -9 15 4 8 10 12 15 9 5 -3 9 0 9 5 0 6 -4 11 -10 11 -5 0 -10 13 -10 29
0 17 -4 33 -10 36 -6 4 -10 -14 -10 -47z"/>
<path d="M1496 318 c30 -51 91 -134 128 -175 50 -54 44 -67 -16 -33 -27 15
-43 19 -50 12 -12 -12 -1 -35 13 -26 6 3 26 -2 45 -11 19 -9 47 -15 62 -13
l27 3 -29 29 c-34 35 -155 193 -163 212 -3 8 -9 14 -15 14 -5 0 -6 -6 -2 -12z"/>
<path d="M2869 284 c-35 -81 -39 -93 -31 -98 9 -6 66 134 58 142 -3 2 -15 -17
-27 -44z"/>
<path d="M1655 310 c-4 -6 10 -38 29 -72 28 -46 32 -59 19 -54 -10 3 -3 -8 15
-25 19 -17 36 -28 39 -25 3 2 -14 40 -37 83 -23 43 -34 69 -26 59 22 -27 32
-12 12 19 -17 26 -40 33 -51 15z"/>
<path d="M3069 207 c-19 -23 -65 -75 -103 -115 -64 -68 -83 -102 -38 -70 24
16 170 176 183 200 19 36 -10 25 -42 -15z"/>
<path d="M2570 230 c0 -5 6 -10 14 -10 8 0 18 5 21 10 3 6 -3 10 -14 10 -12 0
-21 -4 -21 -10z"/>
<path d="M2414 201 c3 -5 16 -11 28 -14 22 -6 22 -5 4 8 -22 17 -40 20 -32 6z"/>
<path d="M2580 183 c0 -13 5 -23 10 -23 13 0 13 11 0 30 -8 12 -10 11 -10 -7z"/>
<path d="M2900 187 c0 -8 -11 -24 -25 -37 -30 -28 -22 -47 11 -26 13 9 48 25
78 37 72 27 82 43 14 23 -29 -9 -56 -18 -60 -20 -3 -2 -4 5 -1 16 3 11 0 20
-6 20 -6 0 -11 -6 -11 -13z"/>
<path d="M2490 169 c0 -5 5 -7 10 -4 6 3 10 8 10 11 0 2 -4 4 -10 4 -5 0 -10
-5 -10 -11z"/>
<path d="M3210 106 c-25 -23 -63 -56 -85 -74 -30 -24 -35 -32 -21 -32 38 0
181 130 158 144 -4 2 -28 -15 -52 -38z"/>
<path d="M1995 65 c39 -36 75 -65 80 -65 6 1 -21 30 -60 65 -38 36 -74 64 -80
64 -5 0 22 -29 60 -64z"/>
<path d="M2480 120 c0 -5 5 -10 11 -10 5 0 7 5 4 10 -3 6 -8 10 -11 10 -2 0
-4 -4 -4 -10z"/>
<path d="M2580 113 c0 -7 7 -13 15 -13 8 0 15 6 15 13 0 8 -7 14 -15 14 -8 0
-15 -6 -15 -14z"/>
<path d="M2306 51 c-28 -44 -30 -51 -18 -51 10 0 54 81 48 87 -3 3 -16 -13
-30 -36z"/>
<path d="M2975 50 c-21 -22 -36 -43 -32 -46 8 -8 41 20 69 59 29 40 8 33 -37
-13z"/>
<path d="M1376 72 c-3 -5 10 -14 29 -20 23 -6 33 -7 29 0 -4 6 18 8 62 4 l69
-6 -55 15 c-62 16 -126 19 -134 7z"/>
<path d="M2366 35 c-18 -23 -22 -35 -13 -35 7 0 21 16 30 35 9 19 15 35 13 35
-2 0 -16 -16 -30 -35z"/>
<path d="M2815 30 c-16 -17 -24 -30 -18 -30 7 0 21 13 33 30 12 17 20 30 18
30 -3 0 -17 -13 -33 -30z"/>
<path d="M3036 44 c-9 -23 -7 -46 3 -40 12 8 21 45 11 51 -4 3 -11 -2 -14 -11z"/>
<path d="M1830 36 c-9 -12 -7 -17 10 -26 12 -6 24 -9 27 -7 2 3 -6 9 -19 13
-21 6 -22 7 -4 14 12 4 15 9 9 13 -6 4 -16 0 -23 -7z"/>
<path d="M1476 16 c5 -13 23 -16 98 -14 l91 1 -85 6 c-47 4 -91 10 -97 14 -9
6 -11 3 -7 -7z"/>
</g>
</svg>
